<?xml version="1.0" standalone="no"?>
<!DOCTYPE svg PUBLIC "-//W3C//DTD SVG 20010904//EN"
 "http://www.w3.org/TR/2001/REC-SVG-20010904/DTD/svg10.dtd">
<svg version="1.0" xmlns="http://www.w3.org/2000/svg"
 width="196.000000pt" height="180.000000pt" viewBox="0 0 196.000000 180.000000"
 preserveAspectRatio="xMidYMid meet">
<metadata>
Created by potrace 1.16, written by Peter Selinger 2001-2019
</metadata>
<g transform="translate(0.000000,180.000000) scale(0.100000,-0.100000)"
fill="#000000" stroke="none">
<path d="M596 1714 c-11 -28 -7 -64 7 -59 14 6 122 -54 113 -62 -3 -3 -86 -52
-183 -108 l-178 -103 -50 29 c-27 16 -51 32 -52 36 -2 5 24 23 56 40 57 31 59
34 48 58 -14 30 -13 30 -133 -41 -83 -48 -94 -58 -94 -83 0 -25 3 -28 25 -24
39 8 108 -39 146 -99 31 -48 34 -58 32 -123 -2 -65 -5 -72 -35 -97 -18 -16
-36 -28 -40 -28 -4 0 -8 46 -8 103 l0 102 -83 48 c-45 26 -93 57 -107 68 -16
12 -33 17 -43 13 -15 -5 -17 -23 -17 -144 l0 -138 93 -47 c50 -26 100 -53 111
-60 21 -15 46 -9 46 11 0 8 4 14 9 14 11 0 57 -67 70 -103 10 -27 4 -144 -8
-151 -3 -2 -5 -44 -3 -93 l4 -88 108 -62 c60 -35 116 -63 123 -63 28 0 33 26
27 149 l-5 123 -79 47 c-43 25 -78 51 -78 56 2 20 31 15 81 -14 51 -31 81 -32
81 -3 0 26 36 -14 65 -71 29 -59 35 -147 10 -167 -20 -16 -19 -23 6 -38 18
-11 30 -8 100 33 l79 46 95 -50 c91 -49 95 -50 108 -31 13 19 14 19 35 -3 41
-43 62 -107 55 -167 -3 -30 -9 -59 -12 -65 -3 -5 -5 -49 -3 -96 l3 -86 110
-62 c60 -34 117 -61 127 -59 15 3 17 19 20 135 l3 131 -93 53 c-81 47 -89 54
-70 62 16 8 33 3 78 -23 l58 -32 17 21 17 21 21 -29 c58 -81 77 -174 44 -220
-15 -23 -15 -25 3 -38 10 -7 22 -12 26 -11 4 2 113 64 242 138 l235 135 1 137
0 137 -27 15 -28 14 28 13 27 12 0 139 c0 123 -2 139 -17 144 -36 12 -119 57
-155 85 -49 39 -65 37 -70 -6 -3 -24 0 -34 8 -31 12 5 114 -50 114 -62 0 -4
-81 -53 -180 -110 l-180 -102 -56 31 -56 32 54 33 c29 19 57 35 62 37 5 2 3
14 -4 26 -31 59 17 190 88 238 l33 22 -64 35 c-35 20 -77 47 -93 61 -37 31
-47 28 -55 -19 -5 -30 -3 -36 9 -31 13 5 128 -53 120 -61 -2 -2 -85 -50 -183
-108 l-180 -104 -50 28 c-27 16 -51 32 -52 37 -2 4 24 23 57 41 59 32 60 33
44 57 -10 15 -22 22 -32 19 -15 -5 -15 -4 -2 8 23 20 50 138 50 220 l-1 73
-80 39 c-45 22 -94 50 -110 64 -36 29 -55 24 -61 -18 -3 -23 -1 -30 9 -26 10
4 101 -40 121 -59 2 -1 -80 -51 -181 -109 l-185 -107 -47 28 c-26 16 -48 33
-48 38 0 6 26 25 57 43 56 33 56 33 40 57 -34 52 20 191 90 234 l35 22 -76 40
c-42 21 -85 48 -95 59 -23 24 -34 25 -42 4z m-494 -464 c-3 -33 -2 -33 17 -16
24 21 54 14 49 -11 -2 -11 -11 -17 -23 -15 -11 1 -3 -7 18 -18 20 -11 37 -27
37 -35 0 -17 -16 -20 -25 -5 -3 6 -11 10 -17 10 -6 0 -4 -8 5 -18 8 -9 20 -29
26 -44 9 -23 8 -26 -9 -25 -10 1 -16 5 -14 9 3 4 0 8 -5 8 -6 0 -11 -7 -11
-16 0 -30 -25 -7 -30 27 -4 25 -7 30 -12 17 -10 -24 -35 -23 -48 2 -11 20 -5
24 25 21 6 0 2 5 -9 12 -43 28 -61 46 -53 53 4 5 17 3 28 -4 18 -12 19 -11 10
7 -6 11 -16 23 -21 26 -16 10 -12 45 5 45 8 0 15 -8 15 -17 0 -10 5 -25 11
-33 9 -12 10 -10 6 8 -7 30 2 54 17 49 6 -2 10 -19 8 -37z m468 -79 c58 -47
94 -114 98 -185 4 -62 4 -63 -34 -94 -21 -18 -42 -32 -46 -32 -5 0 -8 45 -8
100 l0 99 -80 47 c-44 25 -82 49 -85 54 -3 4 10 18 28 29 40 27 79 21 127 -18z
m-137 -120 l-6 -26 22 20 c22 19 23 19 37 1 15 -21 9 -40 -9 -30 -7 3 3 -6 21
-21 41 -34 46 -66 5 -40 l-27 18 22 -28 c26 -32 29 -65 6 -65 -8 0 -13 4 -10
8 2 4 1 14 -5 22 -6 11 -9 8 -9 -13 0 -22 -4 -28 -17 -25 -14 3 -17 12 -15 38
2 29 1 32 -8 18 -15 -24 -46 -23 -53 2 -4 15 0 20 16 21 19 0 17 3 -10 16 -30
15 -49 40 -39 50 2 3 17 -4 33 -14 l28 -18 -27 33 c-32 38 -35 57 -12 66 8 3
13 2 10 -2 -2 -4 -1 -14 5 -22 7 -12 9 -11 9 6 0 28 10 36 26 23 9 -7 11 -21
7 -38z m575 -125 c41 -22 89 -76 111 -127 17 -38 19 -57 13 -105 -6 -52 -11
-61 -42 -82 l-35 -23 -5 103 -5 103 -89 51 -89 52 39 21 c47 24 66 26 102 7z
m-105 -110 c3 -8 3 -25 0 -38 l-6 -23 22 20 c23 20 23 20 37 0 14 -18 13 -20
-8 -26 -23 -5 -23 -6 -2 -12 27 -9 60 -45 50 -54 -4 -4 -16 -1 -28 6 l-21 13
21 -27 c25 -32 29 -62 7 -62 -8 0 -12 3 -10 7 2 3 0 12 -6 20 -6 11 -9 8 -9
-12 0 -18 -5 -28 -15 -28 -16 0 -19 9 -15 49 2 23 1 23 -15 8 -22 -22 -32 -21
-45 3 -9 17 -8 20 12 20 21 0 20 2 -8 19 -18 11 -35 25 -39 31 -12 19 4 25 27
11 l21 -13 -21 27 c-25 32 -29 62 -7 62 8 0 12 -3 10 -7 -2 -3 0 -12 6 -20 7
-12 9 -11 9 6 0 33 23 47 33 20z m-470 -95 l-6 -26 22 20 c22 19 23 19 37 1
15 -21 9 -40 -9 -30 -7 4 4 -7 23 -24 36 -31 35 -56 -2 -33 l-21 13 21 -27
c26 -32 29 -65 6 -65 -8 0 -13 3 -10 8 2 4 -2 18 -9 32 -14 24 -14 24 -8 -12
5 -31 3 -38 -11 -38 -17 0 -19 8 -17 50 1 22 0 23 -9 8 -15 -24 -46 -23 -53 2
-4 15 0 20 16 21 19 0 17 3 -10 16 -30 15 -49 40 -39 50 2 3 17 -4 33 -14 l28
-18 -27 33 c-32 38 -35 57 -12 66 8 3 13 2 10 -2 -2 -4 -1 -14 5 -22 7 -12 9
-11 9 6 0 28 10 36 26 23 9 -7 11 -21 7 -38z m903 10 c95 -43 166 -211 118
-279 -8 -12 -28 -29 -45 -37 l-29 -16 0 100 0 99 -91 53 -92 52 39 23 c47 29
48 29 100 5z m-106 -132 c0 -28 1 -29 16 -15 21 21 31 20 44 -4 9 -16 8 -22
-5 -26 -13 -5 -10 -10 14 -25 17 -10 31 -23 31 -28 0 -18 -18 -21 -30 -6 -7 8
-18 15 -24 15 -7 0 -8 -3 0 -8 16 -11 44 -55 44 -69 0 -7 -7 -13 -15 -13 -8 0
-15 8 -15 18 0 9 -5 24 -10 32 -8 11 -9 6 -8 -20 2 -26 -1 -35 -12 -35 -11 0
-14 9 -13 35 2 28 1 32 -8 18 -8 -15 -49 -26 -49 -14 0 2 -3 11 -6 20 -5 12 0
16 17 17 21 1 20 2 -9 15 -32 14 -51 39 -38 51 3 3 16 -2 28 -13 l22 -19 -22
36 c-26 43 -27 55 -6 63 8 3 12 2 9 -4 -3 -6 -2 -10 3 -10 6 0 13 7 16 16 9
24 26 6 26 -27z m490 -189 c0 -5 5 -9 12 -7 6 1 15 -17 21 -42 7 -37 6 -48
-10 -70 -11 -14 -23 -35 -27 -46 -6 -16 -9 -17 -16 -5 -8 13 -10 12 -10 -2 0
-10 -4 -18 -10 -18 -5 0 -10 4 -10 10 0 5 -7 7 -15 4 -8 -4 -15 -1 -15 5 0 6
5 11 10 11 15 0 12 87 -2 94 -10 3 -8 9 5 19 9 8 17 22 17 31 0 19 16 22 23 4
3 -8 6 -6 6 5 1 18 21 25 21 7z m-490 -141 c0 -28 1 -29 16 -15 20 21 31 20
44 -3 11 -22 -1 -36 -22 -26 -7 3 -5 0 6 -7 51 -36 61 -47 50 -58 -8 -8 -14
-7 -24 5 -7 8 -17 15 -22 15 -5 0 3 -12 17 -27 28 -31 33 -63 10 -63 -8 0 -15
8 -15 18 0 9 -5 24 -10 32 -8 11 -9 6 -8 -20 2 -26 -1 -35 -12 -35 -11 0 -14
9 -13 35 3 32 2 33 -11 17 -17 -22 -49 -19 -54 6 -3 12 3 17 20 17 20 1 17 4
-14 21 -21 11 -38 26 -38 34 0 19 14 19 30 0 22 -27 23 -7 1 21 -25 32 -27 50
-5 58 8 3 12 2 9 -4 -3 -6 -2 -10 3 -10 6 0 13 7 16 16 9 24 26 6 26 -27z"/>
<path d="M878 1384 c-49 -52 -90 -76 -121 -72 -12 1 -46 -11 -75 -27 l-54 -29
30 -14 c29 -14 33 -13 181 73 136 79 150 89 134 101 -30 23 -51 16 -95 -32z"/>
<path d="M13 1053 c-10 -3 -13 -41 -13 -141 l0 -137 110 -63 c132 -77 156 -77
146 -5 -3 25 -6 85 -6 132 l0 86 -72 40 c-39 22 -87 52 -106 68 -36 28 -39 29
-59 20z m89 -133 c-3 -33 -2 -33 17 -16 22 20 51 15 51 -9 0 -9 -9 -15 -22
-15 -19 -1 -16 -4 15 -21 20 -11 37 -26 37 -34 0 -17 -16 -20 -25 -5 -3 6 -11
10 -17 10 -6 0 -5 -7 4 -17 9 -10 20 -28 26 -39 10 -18 8 -23 -8 -27 -11 -3
-18 -1 -14 4 3 5 0 9 -5 9 -6 0 -11 -7 -11 -16 0 -30 -25 -7 -30 27 -4 25 -7
30 -12 17 -10 -24 -35 -23 -48 2 -11 20 -5 24 25 21 6 0 2 5 -9 12 -46 30 -59
44 -52 56 6 9 13 8 28 -6 20 -18 21 -18 9 4 -6 12 -16 25 -21 28 -16 10 -12
45 5 45 8 0 15 -8 15 -17 0 -10 5 -25 11 -33 9 -12 10 -10 6 8 -7 30 2 54 17
49 6 -2 10 -19 8 -37z"/>
<path d="M808 589 c-16 -9 -18 -27 -18 -142 l1 -132 115 -63 c63 -36 121 -61
130 -58 12 5 14 28 12 138 l-3 132 -85 50 c-47 28 -94 58 -104 68 -23 21 -25
21 -48 7z m93 -101 c1 -7 0 -24 -1 -37 -2 -23 -1 -23 15 -8 22 23 42 21 48 -3
4 -15 0 -20 -16 -20 -19 0 -18 -3 9 -19 18 -11 35 -25 39 -31 13 -21 -4 -23
-32 -5 l-28 19 28 -33 c29 -35 36 -68 12 -68 -8 0 -12 3 -10 7 2 3 0 12 -6 20
-7 12 -9 10 -9 -7 0 -26 -19 -41 -30 -24 -4 7 -5 24 -2 39 l5 27 -22 -20 c-22
-19 -23 -19 -37 -1 -16 23 -10 37 14 29 9 -3 3 4 -14 15 -18 11 -35 26 -39 32
-12 19 4 25 27 11 l21 -13 -21 27 c-26 32 -29 65 -6 65 8 0 13 -4 10 -8 -2 -4
-1 -14 5 -22 6 -11 9 -8 9 13 0 27 29 41 31 15z"/>
</g>
</svg>
